<?xml version="1.0" encoding="UTF-8" standalone="no"?>
<!-- Created with Inkscape (http://www.inkscape.org/) -->

<svg
   width="1123.0365mm"
   height="245.31372mm"
   viewBox="0 0 1123.0365 245.31375"
   version="1.1"
   id="svg5"
   inkscape:version="1.1 (c68e22c387, 2021-05-23)"
   sodipodi:docname="other_skills.svg"
   xmlns:inkscape="http://www.inkscape.org/namespaces/inkscape"
   xmlns:sodipodi="http://sodipodi.sourceforge.net/DTD/sodipodi-0.dtd"
   xmlns="http://www.w3.org/2000/svg"
   xmlns:svg="http://www.w3.org/2000/svg">
  <sodipodi:namedview
     id="namedview7"
     pagecolor="#ffffff"
     bordercolor="#666666"
     borderopacity="1.0"
     inkscape:pageshadow="2"
     inkscape:pageopacity="0.0"
     inkscape:pagecheckerboard="0"
     inkscape:document-units="mm"
     showgrid="false"
     inkscape:zoom="0.046268676"
     inkscape:cx="-4019.9983"
     inkscape:cy="-3825.4822"
     inkscape:window-width="1920"
     inkscape:window-height="1017"
     inkscape:window-x="-8"
     inkscape:window-y="-8"
     inkscape:window-maximized="1"
     inkscape:current-layer="g970"
     lock-margins="false"
     fit-margin-top="1"
     fit-margin-left="1"
     fit-margin-right="1"
     fit-margin-bottom="1" />
  <defs
     id="defs2" />
  <g
     inkscape:label="图层 1"
     inkscape:groupmode="layer"
     id="layer1"
     transform="translate(446.26631,-19.946018)">
    <g
       id="g970"
       transform="matrix(4,0,0,4,-345.75603,-427.80869)"
       style="stroke-width:0.25">
      <g
         style="fill:#1565c0;fill-opacity:1;stroke-width:0.108742"
         id="g833"
         transform="matrix(1.2165541,0,0,1.2165541,115.86558,112.18828)">
        <path
           d="m 43.911,12.003 v 0 L 27.069,2.54 c -1.276,-0.717 -2.861,-0.717 -4.138,0 L 6.089,12.003 C 4.801,12.727 4,14.081 4,15.537 v 18.927 c 0,1.455 0.8,2.809 2.089,3.533 l 16.842,9.464 c 0.638,0.358 1.354,0.538 2.069,0.538 0.715,0 1.431,-0.179 2.069,-0.538 L 43.911,37.998 C 45.2,37.272 46,35.918 46,34.463 V 15.537 c 0,-1.456 -0.801,-2.81 -2.089,-3.534 z M 25,37 c -6.617,0 -12,-5.383 -12,-12 0,-6.617 5.383,-12 12,-12 3.78,0 7.275,1.755 9.542,4.741 l -4.38,2.536 C 28.844,18.837 26.973,18 25,18 c -3.86,0 -7,3.14 -7,7 0,3.86 3.14,7 7,7 1.973,0 3.844,-0.837 5.162,-2.277 l 4.38,2.536 C 32.275,35.245 28.78,37 25,37 Z M 37,26 h -2 v 2 h -2 v -2 h -2 v -2 h 2 v -2 h 2 v 2 h 2 z m 7,0 h -2 v 2 h -2 v -2 h -2 v -2 h 2 v -2 h 2 v 2 h 2 z"
           id="path824"
           style="fill:#1565c0;fill-opacity:1;stroke-width:0.108742" />
      </g>
      <g
         style="fill:#1565c0;fill-opacity:1;stroke-width:0.108742"
         id="g862"
         transform="matrix(1.2165541,0,0,1.2165541,-31.4056,112.19111)">
        <path
           d="m 24.646,26.121 c -1.302,-2.014 -2.242,-3.68 -3.548,-6.817 -2.208,-5.306 13.433,-10.1 7.087,-19.306 2.75,6.363 -9.863,10.291 -11.034,15.593 -1.076,4.871 7.488,10.53 7.495,10.53 z"
           id="path835"
           style="fill:#1565c0;fill-opacity:1;stroke-width:0.108742" />
        <path
           d="m 24.942,16.583 c -0.251,3.148 2.903,4.828 2.993,7.119 0.073,1.871 -1.885,3.428 -1.885,3.428 0,0 3.552,-0.667 4.662,-3.524 1.231,-3.167 -2.386,-5.331 -2.019,-7.867 0.351,-2.426 7.858,-6.928 7.858,-6.928 0,0 -11.046,0.7 -11.609,7.772 z m 10.683,9.732 c 2.283,-0.492 4.211,0.904 4.211,2.515 0,3.624 -5.236,7.049 -5.236,7.049 0,0 8.108,-0.927 8.108,-6.881 0,-3.933 -3.983,-4.914 -7.083,-2.683 z"
           id="path837"
           style="fill:#1565c0;fill-opacity:1;stroke-width:0.108742" />
        <path
           d="m 31.779,29.24 c 0,0 2.529,-1.73 3.201,-2.376 -6.202,1.264 -20.36,1.432 -20.36,0.337 0,-1.009 4.563,-2.049 4.563,-2.049 0,0 -10.12,-0.139 -10.12,2.726 10e-4,2.991 13.252,3.202 22.716,1.362 z"
           id="path839"
           style="fill:#1565c0;fill-opacity:1;stroke-width:0.108742" />
        <path
           d="m 30.223,31.96 c -5.867,1.878 -16.685,1.276 -13.483,-1.238 -1.554,0 -3.87,1.202 -3.87,2.357 0,2.325 11.693,4.115 20.349,0.719 z"
           id="path841"
           style="fill:#1565c0;fill-opacity:1;stroke-width:0.108742" />
        <path
           d="m 18.18,35.922 c -2.128,0 -3.509,1.315 -3.509,2.28 0,2.985 12.708,3.286 17.744,0.251 l -3.2,-2.037 C 25.454,38.007 16.008,38.222 18.18,35.922 Z"
           id="path843"
           style="fill:#1565c0;fill-opacity:1;stroke-width:0.108742" />
        <path
           d="m 40.89,40.924 c 0,-1.167 -1.374,-1.721 -1.87,-1.986 2.901,6.718 -29.052,6.196 -29.052,2.233 0,-0.904 2.347,-1.787 4.525,-1.365 L 12.645,38.757 C 8.31,38.102 5.366,39.928 5.366,41.405 5.365,48.281 40.89,47.95 40.89,40.924 Z"
           id="path845"
           style="fill:#1565c0;fill-opacity:1;stroke-width:0.108742" />
        <path
           d="m 44.635,43.25 c -5.4,5.119 -19.089,6.984 -32.853,3.823 13.763,5.631 32.785,2.463 32.853,-3.823 z"
           id="path847"
           style="fill:#1565c0;fill-opacity:1;stroke-width:0.108742" />
      </g>
      <g
         style="fill:#1565c0;fill-opacity:1;stroke-width:0.108742"
         id="g894"
         transform="matrix(0.60827708,0,0,0.60827708,41.969846,112.79732)">
        <path
           d="M 92.087,72.725 C 90.252,66.305 73.86,10 63.25,10 c -5.383,0 -9.383,6.454 -13.251,12.696 -2.481,4.004 -4.825,7.786 -7.208,9.336 -1.034,0.673 -1.965,1.19 -2.865,1.69 -1.808,1.004 -3.515,1.953 -5.415,3.854 -2.288,2.287 -3.926,4.543 -4.453,5.299 L 6.639,51.942 c -0.346,0.134 -0.589,0.449 -0.632,0.817 -0.043,0.368 0.122,0.73 0.428,0.94 L 24.31,65.95 24.313,65.945 c 0.2,0.137 0.446,0.205 0.699,0.171 0.045,-0.006 4.631,-0.601 8.789,1.894 8.058,4.834 8.199,18.852 8.199,18.993 10e-4,0.296 0.134,0.578 0.362,0.767 C 42.543,87.92 42.77,88 43,88 c 0.062,0 0.122,-0.005 0.183,-0.017 0.211,-0.039 5.209,-1.017 10.375,-6.125 3.115,-3.081 5.441,-6.676 7.493,-9.848 3.008,-4.65 5.605,-8.666 9.508,-9.283 5.492,-0.87 16.224,7.653 19.891,11.01 0.33,0.302 0.819,0.348 1.202,0.113 0.379,-0.235 0.557,-0.694 0.435,-1.125 z M 35.925,38.99 c 1.703,-1.703 3.218,-2.545 4.973,-3.52 0.93,-0.517 1.892,-1.051 2.984,-1.762 2.757,-1.793 5.215,-5.76 7.817,-9.958 1.683,-2.715 3.393,-5.466 5.176,-7.627 -2.265,4.03 -4.73,9.912 -7.708,17.257 -2.745,6.77 -5.337,13.164 -7.618,16.675 -0.048,0.074 -0.099,0.145 -0.147,0.218 l -9.308,-6.802 c 0.717,-0.978 2.085,-2.736 3.831,-4.481 z M 24.967,63.975 9.13,53.123 30.558,44.826 40.239,51.9 c -5.316,6.924 -13.23,11.08 -15.272,12.075 z m 45.279,-3.224 c -4.784,0.757 -7.606,5.12 -10.874,10.172 -1.997,3.086 -4.26,6.584 -7.221,9.512 -3.299,3.262 -6.543,4.69 -8.2,5.255 C 43.721,81.87 42.398,70.835 34.83,66.294 32.731,65.035 30.562,64.46 28.775,64.214 32.702,61.941 39.055,57.564 43.226,51.143 45.611,47.471 48.238,40.991 51.02,34.13 54.807,24.791 59.992,12 63.25,12 69.801,12 82.231,46.33 89.228,70.05 84.85,66.453 75.932,59.849 70.246,60.751 Z"
           id="path864"
           style="fill:#1565c0;fill-opacity:1;stroke-width:0.108742" />
        <path
           d="m 57.765,26.25 c -0.067,0 -0.136,-0.014 -0.201,-0.042 -0.253,-0.111 -0.367,-0.406 -0.257,-0.659 1.458,-3.323 2.675,-5.833 3.721,-7.671 0.136,-0.24 0.44,-0.325 0.682,-0.188 0.24,0.136 0.324,0.442 0.188,0.682 -1.028,1.809 -2.23,4.288 -3.674,7.579 -0.083,0.187 -0.267,0.299 -0.459,0.299 z"
           id="path866"
           style="fill:#1565c0;fill-opacity:1;stroke-width:0.108742" />
        <path
           d="m 56.213,29.875 c -0.064,0 -0.131,-0.013 -0.193,-0.039 -0.255,-0.107 -0.375,-0.4 -0.268,-0.655 l 0.423,-1.001 c 0.107,-0.255 0.399,-0.372 0.655,-0.266 0.254,0.108 0.373,0.401 0.265,0.655 l -0.421,0.999 c -0.08,0.192 -0.266,0.307 -0.461,0.307 z"
           id="path868"
           style="fill:#1565c0;fill-opacity:1;stroke-width:0.108742" />
        <path
           d="m 46.432,81.686 c -0.069,0 -0.139,-0.014 -0.204,-0.043 C 46.076,81.575 45.967,81.435 45.939,81.27 44.965,75.564 42.47,67.963 36.117,64.151 35.868,64.002 35.618,63.86 35.369,63.727 c -0.151,-0.081 -0.25,-0.232 -0.264,-0.403 -0.013,-0.17 0.063,-0.336 0.199,-0.438 4.226,-3.158 7.597,-6.65 10.02,-10.38 2.516,-3.874 5.186,-10.461 8.014,-17.436 0.403,-0.997 0.824,-2.014 1.282,-3.123 l 0.419,-1.013 c 0.105,-0.255 0.397,-0.374 0.652,-0.271 0.256,0.105 0.377,0.398 0.271,0.653 l -0.418,1.013 c -0.458,1.107 -0.878,2.123 -1.281,3.117 -2.846,7.02 -5.533,13.65 -8.102,17.604 -2.368,3.647 -5.612,7.067 -9.648,10.173 0.039,0.023 0.078,0.046 0.117,0.07 6.401,3.84 9.062,11.245 10.16,17.059 1.012,-0.693 1.984,-1.5 2.9,-2.406 1.135,-1.122 2.248,-2.428 3.405,-3.994 0.166,-0.222 0.48,-0.268 0.699,-0.104 0.223,0.164 0.27,0.477 0.105,0.699 -1.188,1.607 -2.335,2.952 -3.507,4.11 -1.154,1.142 -2.397,2.135 -3.695,2.952 -0.08,0.051 -0.173,0.077 -0.265,0.077 z"
           id="path870"
           style="fill:#1565c0;fill-opacity:1;stroke-width:0.108742" />
        <path
           fill="#000000"
           d="m 58.186,67.25 c -0.445,0.671 -0.888,1.355 -1.334,2.044"
           id="path872"
           style="fill:#1565c0;fill-opacity:1;stroke-width:0.108742" />
        <path
           d="m 56.853,69.794 c -0.094,0 -0.188,-0.026 -0.271,-0.08 -0.231,-0.15 -0.298,-0.459 -0.148,-0.691 0.446,-0.691 0.89,-1.376 1.338,-2.049 0.152,-0.231 0.463,-0.292 0.693,-0.14 0.229,0.153 0.292,0.463 0.139,0.693 -0.444,0.669 -0.886,1.352 -1.33,2.039 -0.097,0.147 -0.258,0.228 -0.421,0.228 z"
           id="path874"
           style="fill:#1565c0;fill-opacity:1;stroke-width:0.108742" />
        <path
           d="m 59.651,65.625 c -0.102,0 -0.204,-0.031 -0.293,-0.095 -0.224,-0.162 -0.274,-0.475 -0.112,-0.698 2.378,-3.286 5.479,-6.751 10.453,-7.537 3.479,-0.555 7.834,0.723 13.106,3.852 -2.395,-7.483 -4.786,-14.379 -7.116,-20.514 -1.432,-3.77 -2.826,-7.213 -4.146,-10.234 -0.11,-0.253 0.005,-0.548 0.258,-0.658 0.254,-0.111 0.548,0.004 0.658,0.258 1.327,3.036 2.729,6.495 4.166,10.279 2.468,6.5 5.005,13.849 7.541,21.843 0.063,0.2 -0.005,0.418 -0.171,0.547 -0.165,0.128 -0.395,0.14 -0.571,0.028 -5.565,-3.497 -10.084,-4.964 -13.568,-4.413 -4.612,0.729 -7.542,4.017 -9.799,7.136 -0.098,0.134 -0.251,0.206 -0.406,0.206 z"
           id="path876"
           style="fill:#1565c0;fill-opacity:1;stroke-width:0.108742" />
        <line
           x1="14.875"
           x2="25.375"
           y1="53.25"
           y2="60.625"
           fill="#000000"
           stroke="#000000"
           stroke-linecap="round"
           stroke-linejoin="round"
           stroke-miterlimit="10"
           id="line878"
           style="fill:#1565c0;fill-opacity:1;stroke-width:0.0543715" />
      </g>
      <g
         style="fill:#1565c0;fill-opacity:1;stroke-width:0.108742"
         id="g923"
         transform="matrix(1.2165541,0,0,1.2165541,194.55386,116.44833)">
        <path
           d="m -0.738,-88.593 h 2 v -7.381 l 2.778,6.31 c 0.343,0.787 0.811,1.065 1.731,1.065 0.92,0 1.37,-0.278 1.713,-1.065 l 2.778,-6.148 v 7.219 h 2 v -7.561 c 0,-0.726 -0.289,-1.078 -0.884,-1.259 -1.424,-0.448 -2.38,-0.061 -2.813,0.908 l -2.849,6.417 -2.759,-6.417 c -0.415,-0.969 -1.388,-1.356 -2.813,-0.908 -0.595,0.181 -0.884,0.533 -0.884,1.259 v 7.561 z"
           transform="translate(0.738,121.593)"
           id="path896"
           style="fill:#1565c0;fill-opacity:1;stroke-width:0.108742" />
        <path
           d="m -86.444,-115.416 h 2 v 4.224 c -0.016,0.208 0.067,0.761 1.031,0.776 0.492,0.008 2.939,0 2.969,0 v -5 h 2 c 0.008,0 0,6.217 0,6.243 0.01,1.533 -1.904,1.731 -2.785,1.757 h -5.215 v -1 c 0.01,0 4.987,10e-4 5.001,0 1.133,-0.12 0.999,-0.744 0.999,-0.933 v -0.067 h -3.137 c -1.74,-0.016 -2.849,-0.782 -2.862,-1.656 -0.001,-0.081 0.038,-4.306 -0.001,-4.344 z"
           transform="translate(100.444,142.416)"
           id="path898"
           style="fill:#1565c0;fill-opacity:1;stroke-width:0.108742" />
        <path
           d="m -148.496,-91.557 h 5.008 c 0.656,0 1.294,-0.137 1.8,-0.375 0.844,-0.387 1.192,-0.912 1.192,-1.6 v -1.425 c 0,-1.538 -1.906,-1.6 -3,-1.6 h -2 c -0.787,0 -0.906,-0.475 -1,-1 v -1 c 0.094,-0.4 0.269,-0.938 0.962,-1 0.805,0 5.038,0 5.038,0 v -1 h -4.756 c -0.787,0 -3.244,0.094 -3.244,2 v 1.237 c 0,0.875 0.769,1.588 2.438,1.763 0.188,0.012 0.375,0.025 0.562,0.025 0,0 1.944,-0.038 2,-0.025 1.125,0 1,0.875 1,1 v 1 c 0,0.138 -0.031,1 -1.011,1 -0.075,0 -4.989,0 -4.989,0 z"
           transform="translate(171.496,124.557)"
           id="path900"
           style="fill:#1565c0;fill-opacity:1;stroke-width:0.108742" />
        <path
           d="m -266.656,-93.599 c 0,1.207 0.682,1.884 2.492,2.02 0.169,0.011 0.339,0.022 0.508,0.022 h 5 v -1 h -4.62 c -1.032,0 -1.38,-0.433 -1.38,-1.053 v -6.947 h -2 z"
           transform="translate(308.656,124.557)"
           id="path902"
           style="fill:#1565c0;fill-opacity:1;stroke-width:0.108742" />
        <path
           d="m -204.757,-93.666 v -5 c 0,-1.063 0.521,-1.796 1.996,-2 h 0.7 3.591 0.547 c 1.475,0.204 2.167,0.937 2.167,2 v 4.981 c 0,0.862 -0.224,1.324 -0.954,1.624 l 1.549,1.394 h -2.25 l -1.115,-1 h -1.309 l -2.225,0.013 c -0.322,0 -0.661,-0.045 -1.034,-0.147 -1.12,-0.305 -1.663,-0.893 -1.663,-1.865 z m 2,0 c 0.102,0.486 0.493,1 1.188,1 h 1.942 l -1.113,-1 h 2.266 l 0.541,0.502 c 0,0 0.194,-0.158 0.194,-0.502 0,-0.344 -0.017,-5 -0.017,-5 -0.102,-0.452 -0.56,-1 -1.238,-1 h -2.574 c -0.78,0 -1.188,0.571 -1.188,1.102 v 4.898 z"
           transform="translate(236.74,124.666)"
           id="path904"
           style="fill:#1565c0;fill-opacity:1;stroke-width:0.108742" />
        <path
           d="m -193.466,27.589 c -1.074,-0.029 -1.894,0.071 -2.595,0.366 -0.199,0.084 -0.517,0.086 -0.55,0.336 0.109,0.115 0.126,0.286 0.214,0.427 0.167,0.271 0.45,0.634 0.702,0.824 0.276,0.208 0.56,0.431 0.855,0.611 0.525,0.32 1.112,0.503 1.618,0.824 0.298,0.189 0.594,0.428 0.885,0.641 0.144,0.106 0.24,0.27 0.427,0.336 0,-0.01 0,-0.02 0,-0.03 -0.098,-0.125 -0.124,-0.297 -0.214,-0.428 -0.132,-0.132 -0.265,-0.265 -0.397,-0.397 -0.388,-0.515 -0.881,-0.968 -1.404,-1.343 -0.418,-0.3 -1.352,-0.705 -1.527,-1.191 -0.01,-0.01 -0.02,-0.02 -0.031,-0.031 0.296,-0.033 0.643,-0.141 0.916,-0.214 0.459,-0.123 0.869,-0.091 1.343,-0.214 0.214,-0.061 0.427,-0.122 0.641,-0.183 0,-0.041 0,-0.081 0,-0.122 -0.24,-0.246 -0.411,-0.571 -0.672,-0.794 -0.684,-0.582 -1.43,-1.164 -2.198,-1.649 -0.426,-0.269 -0.953,-0.444 -1.404,-0.672 -0.152,-0.077 -0.419,-0.117 -0.519,-0.244 -0.237,-0.302 -0.366,-0.686 -0.549,-1.038 -0.383,-0.738 -0.76,-1.544 -1.099,-2.32 -0.232,-0.529 -0.383,-1.052 -0.672,-1.527 -1.386,-2.279 -2.879,-3.655 -5.19,-5.007 -0.492,-0.288 -1.084,-0.401 -1.71,-0.55 -0.336,-0.02 -0.672,-0.041 -1.008,-0.061 -0.205,-0.086 -0.418,-0.336 -0.611,-0.458 -0.766,-0.484 -2.73,-1.536 -3.297,-0.153 -0.358,0.873 0.535,1.725 0.855,2.168 0.224,0.31 0.511,0.658 0.672,1.008 0.105,0.229 0.124,0.459 0.214,0.702 0.222,0.598 0.573,1.279 0.86,1.832 0.145,0.28 0.305,0.574 0.489,0.824 0.112,0.153 0.305,0.221 0.336,0.458 -0.189,0.264 -0.199,0.673 -0.305,1.008 -0.477,1.505 -0.297,3.375 0.397,4.488 0.213,0.342 0.715,1.075 1.404,0.794 0.603,-0.246 0.469,-1.007 0.641,-1.679 0.039,-0.152 0.015,-0.264 0.092,-0.366 0,0.01 0,0.02 0,0.031 0.183,0.366 0.366,0.733 0.55,1.099 0.407,0.655 1.129,1.34 1.74,1.802 0.317,0.24 0.567,0.654 0.977,0.794 0,-0.01 0,-0.02 0,-0.031 -0.01,0 -0.02,0 -0.031,0 -0.079,-0.124 -0.204,-0.175 -0.305,-0.275 -0.239,-0.234 -0.505,-0.525 -0.702,-0.794 -0.556,-0.755 -1.048,-1.582 -1.496,-2.443 -0.214,-0.411 -0.4,-0.864 -0.58,-1.282 -0.07,-0.161 -0.069,-0.405 -0.214,-0.489 -0.198,0.306 -0.488,0.554 -0.641,0.916 -0.244,0.578 -0.276,1.284 -0.366,2.015 -0.054,0.019 -0.03,0.006 -0.061,0.03 -0.425,-0.103 -0.575,-0.54 -0.733,-0.916 -0.4,-0.95 -0.474,-2.479 -0.122,-3.572 0.091,-0.283 0.502,-1.174 0.336,-1.435 -0.079,-0.261 -0.342,-0.412 -0.488,-0.611 -0.182,-0.246 -0.363,-0.571 -0.489,-0.855 -0.327,-0.741 -0.638,-1.602 -0.982,-2.351 -0.165,-0.358 -0.443,-0.72 -0.672,-1.038 -0.253,-0.352 -0.537,-0.612 -0.733,-1.038 -0.07,-0.151 -0.165,-0.394 -0.061,-0.55 0.033,-0.105 0.079,-0.149 0.183,-0.183 0.177,-0.137 0.67,0.045 0.855,0.122 0.49,0.203 0.898,0.397 1.313,0.672 0.199,0.132 0.4,0.387 0.641,0.458 0.092,0 0.183,0 0.275,0 0.43,0.099 0.911,0.031 1.313,0.153 0.71,0.216 1.346,0.551 1.923,0.916 1.76,1.111 3.199,2.693 4.183,4.58 0.158,0.304 0.227,0.594 0.366,0.916 0.281,0.65 0.636,1.319 0.916,1.954 0.279,0.634 0.552,1.274 0.947,1.802 0.208,0.277 1.01,0.426 1.374,0.58 0.255,0.108 0.674,0.22 0.916,0.366 0.462,0.279 0.91,0.611 1.343,0.916 0.217,0.154 0.883,0.489 0.916,0.765 z"
           transform="translate(241.59,-4.643)"
           id="path906"
           style="fill:#1565c0;fill-opacity:1;stroke-width:0.108742" />
        <path
           d="m -238.028,-13.489 c -0.224,-0.004 -0.382,0.024 -0.55,0.061 0,0.01 0,0.02 0,0.031 0.01,0 0.02,0 0.031,0 0.107,0.219 0.295,0.361 0.427,0.55 0.102,0.214 0.203,0.427 0.305,0.641 0.01,-0.01 0.02,-0.02 0.03,-0.03 0.189,-0.133 0.276,-0.346 0.275,-0.672 -0.076,-0.08 -0.087,-0.18 -0.153,-0.275 -0.086,-0.128 -0.255,-0.2 -0.365,-0.306 z"
           transform="translate(272.504,24.803)"
           id="path908"
           style="fill:#1565c0;fill-opacity:1;stroke-width:0.108742" />
      </g>
    </g>
  </g>
</svg>
